<svg xmlns="http://www.w3.org/2000/svg" xmlns:xlink="http://www.w3.org/1999/xlink" width="512" zoomAndPan="magnify" viewBox="0 0 384 383.999986" height="512" preserveAspectRatio="xMidYMid meet" version="1.0"><defs><g/><clipPath id="44baf8c26c"><rect x="0" width="323" y="0" height="259"/></clipPath></defs><rect x="-38.4" width="460.8" fill="#ffffff" y="-38.399999" height="460.799983" fill-opacity="1"/><rect x="-38.4" width="460.8" fill="#ffffff" y="-38.399999" height="460.799983" fill-opacity="1"/><g transform="matrix(1, 0, 0, 1, 32, 61)"><g clip-path="url(#44baf8c26c)"><g fill="#155dfc" fill-opacity="1"><g transform="translate(0.889076, 201.598274)"><g><path d="M 17.46875 0 L 17.46875 -134.390625 L 71.421875 -134.390625 C 85.328125 -134.390625 95.816406 -131.1875 102.890625 -124.78125 C 109.972656 -118.375 113.515625 -109.535156 113.515625 -98.265625 C 113.515625 -90.109375 111.445312 -83.425781 107.3125 -78.21875 C 103.175781 -73.007812 97.003906 -69.03125 88.796875 -66.28125 L 88.796875 -64.34375 C 93.023438 -62.5 96.441406 -59.769531 99.046875 -56.15625 C 101.648438 -52.539062 104.113281 -47.179688 106.4375 -40.078125 L 119.859375 0 L 92.5625 0 L 79.421875 -40.171875 C 78.066406 -44.210938 76.546875 -47.351562 74.859375 -49.59375 C 73.179688 -51.832031 71.039062 -53.457031 68.4375 -54.46875 C 65.832031 -55.476562 62.445312 -55.984375 58.28125 -55.984375 L 44.03125 -55.984375 L 44.03125 0 Z M 68.203125 -77.03125 C 81.066406 -77.03125 87.5 -83.035156 87.5 -95.046875 C 87.5 -107.242188 81.066406 -113.34375 68.203125 -113.34375 L 44.03125 -113.34375 L 44.03125 -77.03125 Z M 68.203125 -77.03125 "/></g></g></g><g fill="#155dfc" fill-opacity="1"><g transform="translate(126.53812, 201.598274)"><g><path d="M 128.96875 0 L 101.015625 0 L 90.90625 -30.984375 L 39.4375 -30.984375 L 29.328125 0 L 2.015625 0 L 48.4375 -134.390625 L 82.546875 -134.390625 Z M 63.890625 -106.34375 L 46.609375 -53.3125 L 83.546875 -53.3125 L 66.1875 -106.34375 Z M 63.890625 -106.34375 "/></g></g></g><g fill="#155dfc" fill-opacity="1"><g transform="translate(257.518285, 201.598274)"><g><path d="M 44.03125 0 L 17.46875 0 L 17.46875 -134.390625 L 44.03125 -134.390625 Z M 44.03125 0 "/></g></g></g></g></g></svg>